#!OML:ASF I:\golf\golf\golf 2\Subject 1\2002-09-07\Subject1.ASF
:FULLY-SPECIFIED
:DEGREES
326
root -5.36666 18.0007 -4.73812 -167.946 -7.18429 -177.7
lowerback -11.6701 17.4972 14.6481
upperback -15.5705 19.3677 0.00396484
thorax -6.23102 7.11408 -5.29604
lowerneck -6.94614 -19.4212 -4.54392
upperneck 11.1503 -26.1311 0.287886
head 5.07434 -13.0968 -1.05043
rclavicle 3.97569e-014 2.70347e-014
rhumerus 108.589 30.6115 -46.037
rradius 92.4528
rwrist 10.3748
rhand -48.2161 44.2428
rfingers 7.12502
rthumb -20.876 15.3461
lclavicle 3.97569e-014 2.70347e-014
lhumerus 66.5119 27.0351 69.3045
lradius 105.835
lwrist -0.289814
lhand -33.7191 13.8934
lfingers 7.12502
lthumb -186.908 -136.239
rfemur 18.5905 -7.45302 21.4386
rtibia 11.7311
rfoot 30.5412 -32.2322
rtoes 18.7778
lfemur -23.941 -16.7277 -16.9123
ltibia 25.3919
lfoot 49.5825 -43.1264
ltoes 56.1246
327
root -5.36068 18.0016 -4.7552 -167.882 -7.24007 -177.907
lowerback -11.6268 17.5324 14.6043
upperback -15.6135 19.4274 -0.0628558
thorax -6.28032 7.13904 -5.34761
lowerneck -6.97561 -19.342 -4.60283
upperneck 11.1632 -25.9906 0.181289
head 5.07302 -13.0338 -1.06435
rclavicle 2.26615e-014 -7.15625e-015
rhumerus 108.188 30.8765 -46.3736
rradius 92.4007
rwrist 10.3555
rhand -48.4134 44.2512
rfingers 7.12502
rthumb -21.0655 15.3754
lclavicle 2.26615e-014 -7.15625e-015
lhumerus 66.0254 27.0023 68.5773
lradius 105.53
lwrist -0.423125
lhand -33.5786 13.7385
lfingers 7.12502
lthumb -186.773 -136.39
rfemur 18.4901 -7.42792 21.3097
rtibia 11.8857
rfoot 30.2421 -32.5115
rtoes 19.1736
lfemur -23.8779 -16.5743 -17.1645
ltibia 25.3522
lfoot 49.6426 -43.2844
ltoes 56.0773
328
root -5.35673 18.0021 -4.76974 -167.772 -7.24648 -178.192
lowerback -11.5961 17.5859 14.5314
upperback -15.6507 19.5162 -0.198551
thorax -6.29349 7.1849 -5.44508
lowerneck -7.08997 -19.2705 -4.54745
upperneck 11.205 -25.8675 0.0516067
head 5.07726 -12.9759 -1.10646
rclavicle 4.53229e-014 4.37326e-014
rhumerus 107.569 30.9628 -46.823
rradius 92.4687
rwrist 10.1851
rhand -48.5564 44.1042
rfingers 7.12502
rthumb -21.203 15.2438
lclavicle 4.53229e-014 4.37326e-014
lhumerus 65.6984 26.9439 67.8002
lradius 105.113
lwrist -0.446562
lhand -33.4442 13.8462
lfingers 7.12502
lthumb -186.643 -136.278
rfemur 18.3277 -7.37811 21.0787
rtibia 12.092
rfoot 30.3025 -32.654
rtoes 21.0037
lfemur -23.857 -16.4212 -17.5075
ltibia 25.2851
lfoot 49.8702 -43.2912
ltoes 56.1358
329
root -5.35189 18.0008 -4.78242 -167.615 -7.29587 -178.41
lowerback -11.7013 17.5985 14.4269
upperback -15.6571 19.5137 -0.246822
thorax -6.25746 7.19193 -5.42365
lowerneck -7.22793 -19.1757 -4.41659
upperneck 11.2356 -25.7088 -0.144153
head 5.06307 -12.9021 -1.17064
rclavicle -2.74323e-014 -3.57812e-014
rhumerus 107.317 31.3807 -47.212
rradius 92.2315
rwrist 10.1395
rhand -48.7544 44.1596
rfingers 7.12502
rthumb -21.3931 15.3206
lclavicle -2.74323e-014 -3.57812e-014
lhumerus 65.3603 27.0334 66.9489
lradius 104.629
lwrist -0.371829
lhand -33.4454 14.4114
lfingers 7.12502
lthumb -186.644 -135.713
rfemur 18.1016 -7.36198 20.9434
rtibia 12.3054
rfoot 30.1974 -32.9155
rtoes 22.6738
lfemur -23.9175 -16.3029 -17.7431
ltibia 25.2168
lfoot 50.1474 -43.268
ltoes 56.2062
330
root -5.34648 17.9992 -4.79413 -167.495 -7.39847 -178.437
lowerback -11.7729 17.6241 14.509
upperback -15.6603 19.5132 -0.216787
thorax -6.21344 7.18254 -5.40846
lowerneck -7.50136 -19.1036 -4.48183
upperneck 11.4994 -25.562 -0.369176
head 5.1645 -12.8384 -1.25671
rclavicle 3.53837e-014 -5.80451e-014
rhumerus 106.647 31.327 -47.7602
rradius 92.3822
rwrist 9.39164
rhand -48.7205 44.4127
rfingers 7.12502
rthumb -21.3606 15.5701
lclavicle 3.53837e-014 -5.80451e-014
lhumerus 64.9608 27.0459 66.1948
lradius 104.058
lwrist -0.262129
lhand -33.2509 14.6717
lfingers 7.12502
lthumb -186.456 -135.447
rfemur 17.9245 -7.43219 20.9996
rtibia 12.4535
rfoot 29.7624 -33.1635
rtoes 22.022
lfemur -23.9804 -16.1879 -17.7612
ltibia 25.188
lfoot 50.2652 -43.3356
ltoes 56.3259
331
root -5.34008 17.9981 -4.8069 -167.48 -7.47502 -178.363
lowerback -11.7442 17.6487 14.7041
upperback -15.6479 19.5289 -0.155687
thorax -6.18128 7.17442 -5.4293
lowerneck -7.78521 -19.0254 -4.53671
upperneck 11.8127 -25.4079 -0.616233
head 5.2795 -12.7731 -1.35332
rclavicle -1.04958e-013 -8.74653e-014
rhumerus 106.155 31.5835 -48.2138
rradius 92.1476
rwrist 9.16499
rhand -48.2559 43.8504
rfingers 7.12502
rthumb -20.9143 14.9578
lclavicle -1.04958e-013 -8.74653e-014
lhumerus 64.5824 26.992 65.485
lradius 103.562
lwrist 0.0429886
lhand -32.7056 14.7855
lfingers 7.12502
lthumb -185.93 -135.317
rfemur 17.8767 -7.46293 21.1467
rtibia 12.541
rfoot 29.2613 -33.6145
rtoes 23.2398
lfemur -23.9503 -16.0677 -17.6882
ltibia 25.1968
lfoot 50.3046 -43.3238
ltoes 56.5787
332
root -5.33228 17.9982 -4.81835 -167.49 -7.49114 -178.453
lowerback -11.6388 17.6027 14.6912
upperback -15.6272 19.497 -0.094728
thorax -6.24242 7.15981 -5.39594
lowerneck -7.94945 -18.9011 -4.47984
upperneck 11.9431 -25.2053 -0.825712
head 5.30902 -12.6819 -1.42111
rclavicle 1.76123e-013 1.57437e-013
rhumerus 105.792 31.9383 -48.6879
rradius 91.6828
rwrist 9.11937
rhand -47.7224 43.0292
rfingers 7.12502
rthumb -20.4016 14.0809
lclavicle 1.76123e-013 1.57437e-013
lhumerus 64.1647 27.0352 64.6614
lradius 103.217
lwrist 0.626507
lhand -32.0984 15.0914
lfingers 7.12502
lthumb -185.344 -134.996
rfemur 17.8795 -7.53125 21.0649
rtibia 12.6235
rfoot 29.0767 -33.7842
rtoes 24.7827
lfemur -23.8769 -15.9924 -17.7967
ltibia 25.2059
lfoot 50.3108 -43.3267
ltoes 56.5687
333
root -5.32588 17.9976 -4.82535 -167.425 -7.52018 -178.653
lowerback -11.519 17.565 14.6406
upperback -15.6064 19.491 -0.110903
thorax -6.28806 7.16419 -5.42171
lowerneck -8.08618 -18.7941 -4.4509
upperneck 11.9652 -25.0305 -0.937471
head 5.31693 -12.5984 -1.45343
rclavicle -1.88845e-013 -1.39944e-013
rhumerus 105.393 31.9524 -49.1103
rradius 91.4237
rwrist 8.65791
rhand -47.3993 43.1672
rfingers 7.12502
rthumb -20.0912 14.186
lclavicle -1.88845e-013 -1.39944e-013
lhumerus 63.766 27.0302 63.8565
lradius 102.69
lwrist 1.00637
lhand -31.7863 15.2616
lfingers 7.12502
lthumb -185.042 -134.818
rfemur 17.778 -7.69847 20.8285
rtibia 12.7784
rfoot 29.2686 -33.4644
rtoes 24.8574
lfemur -23.8654 -15.9203 -18.0243
ltibia 25.1751
lfoot 50.5711 -42.9794
ltoes 56.7116
334
root -5.32102 17.9938 -4.82974 -167.335 -7.53758 -178.816
lowerback -11.455 17.5655 14.6737
upperback -15.555 19.5165 -0.14223
thorax -6.23594 7.18642 -5.47082
lowerneck -8.21219 -18.7032 -4.42025
upperneck 11.984 -24.88 -1.04139
head 5.32352 -12.5265 -1.48461
rclavicle -2.3059e-014 -2.46493e-014
rhumerus 104.966 31.7468 -49.4936
rradius 91.1943
rwrist 8.10705
rhand -47.0053 43.2705
rfingers 7.12502
rthumb -19.7124 14.25
lclavicle -2.3059e-014 -2.46493e-014
lhumerus 63.4619 26.8987 63.1212
lradius 101.949
lwrist 1.04583
lhand -31.4983 15.4009
lfingers 7.12502
lthumb -184.764 -134.673
rfemur 17.6255 -7.86788 20.6221
rtibia 12.9867
rfoot 29.5199 -33.23
rtoes 25.9425
lfemur -23.867 -15.8372 -18.2193
ltibia 25.1211
lfoot 50.8635 -42.4712
ltoes 57.0903
335
root -5.31349 17.9901 -4.83525 -167.268 -7.51869 -178.889
lowerback -11.3892 17.5586 14.7189
upperback -15.4907 19.5257 -0.0944809
thorax -6.19858 7.19884 -5.44874
lowerneck -8.44848 -18.5749 -4.41358
upperneck 12.1242 -24.6631 -1.22299
head 5.37825 -12.4261 -1.54786
rclavicle 3.85642e-014 7.95139e-016
rhumerus 104.587 31.6479 -49.868
rradius 90.8057
rwrist 7.73689
rhand -46.4382 42.7451
rfingers 7.12502
rthumb -19.1671 13.6696
lclavicle 3.85642e-014 7.95139e-016
lhumerus 63.2107 26.7977 62.3265
lradius 101.177
lwrist 1.29013
lhand -31.1257 15.707
lfingers 7.12502
lthumb -184.404 -134.359
rfemur 17.4943 -7.88655 20.5648
rtibia 13.1585
rfoot 29.6574 -33.1236
rtoes 25.8534
lfemur -23.8455 -15.7707 -18.2935
ltibia 25.08
lfoot 50.7638 -42.4669
ltoes 57.1514
336
root -5.30391 17.9922 -4.84189 -167.17 -7.53732 -178.901
lowerback -11.299 17.5155 14.7765
upperback -15.4641 19.4844 -0.0150864
thorax -6.23463 7.17313 -5.42282
lowerneck -8.73475 -18.4556 -4.47509
upperneck 12.3616 -24.4573 -1.38557
head 5.48301 -12.3321 -1.61266
rclavicle -7.59357e-014 -5.80451e-014
rhumerus 104.242 31.5939 -50.1945
rradius 90.4126
rwrist 7.46202
rhand -46.1023 42.0628
rfingers 7.12502
rthumb -18.8441 12.9556
lclavicle -7.59357e-014 -5.80451e-014
lhumerus 62.916 26.8539 61.44
lradius 100.409
lwrist 1.94984
lhand -30.8089 15.9822
lfingers 7.12502
lthumb -184.099 -134.077
rfemur 17.3392 -7.78416 20.6589
rtibia 13.271
rfoot 29.2629 -33.3384
rtoes 24.9213
lfemur -23.8913 -15.6661 -18.2769
ltibia 25.0626
lfoot 50.5494 -42.8113
ltoes 57.1226
337
root -5.29576 17.9953 -4.84826 -167.067 -7.58835 -178.956
lowerback -11.2252 17.4353 14.8247
upperback -15.455 19.391 0.0349694
thorax -6.28331 7.11866 -5.43159
lowerneck -8.91786 -18.3904 -4.58062
upperneck 12.6544 -24.3529 -1.45576
head 5.60777 -12.2873 -1.65128
rclavicle 1.82882e-014 4.6118e-014
rhumerus 103.852 31.3932 -50.5362
rradius 90.1109
rwrist 7.0879
rhand -46.1326 41.1427
rfingers 7.12502
rthumb -18.8732 12.0383
lclavicle 1.82882e-014 4.6118e-014
lhumerus 62.5394 26.8643 60.5378
lradius 99.7369
lwrist 2.7755
lhand -30.5391 16.4112
lfingers 7.12502
lthumb -183.838 -133.644
rfemur 17.2225 -7.70667 20.7063
rtibia 13.3334
rfoot 28.6688 -33.6539
rtoes 25.2268
lfemur -23.9622 -15.563 -18.3197
ltibia 25.0688
lfoot 50.3887 -43.2062
ltoes 57.1047
